<?xml version="1.0" standalone="no"?>
<!DOCTYPE svg PUBLIC "-//W3C//DTD SVG 20010904//EN"
 "http://www.w3.org/TR/2001/REC-SVG-20010904/DTD/svg10.dtd">
<svg version="1.0" xmlns="http://www.w3.org/2000/svg"
 width="1327.000000pt" height="1327.000000pt" viewBox="0 0 1327.000000 1327.000000"
 preserveAspectRatio="xMidYMid meet">
<metadata>
Created by potrace 1.11, written by Peter Selinger 2001-2013
</metadata>
<g transform="translate(0.000000,1327.000000) scale(0.100000,-0.100000)"
fill="#000000" stroke="none">
<path d="M4835 8856 c-17 -19 -89 -96 -161 -172 -72 -77 -146 -155 -164 -174
-18 -19 -67 -71 -109 -116 -42 -44 -132 -141 -201 -214 -69 -73 -145 -154
-170 -180 -47 -50 -250 -266 -309 -329 -18 -20 -93 -99 -166 -176 -72 -77
-163 -173 -201 -214 -38 -41 -94 -100 -124 -132 -30 -32 -98 -104 -150 -159
-52 -56 -113 -121 -135 -144 -22 -24 -98 -105 -170 -181 -71 -76 -186 -196
-255 -268 -69 -71 -126 -132 -128 -136 -1 -4 94 -6 211 -6 l214 2 134 138 c74
76 166 170 204 210 39 40 176 181 305 315 129 134 276 285 325 336 94 97 282
294 431 453 49 52 112 117 139 146 28 29 109 114 180 190 72 76 162 171 202
213 l72 74 726 -723 c399 -398 868 -866 1041 -1039 l315 -314 864 -1 863 0 98
200 c53 110 158 324 233 475 74 151 136 277 136 280 3 15 286 582 289 579 2
-2 60 -114 128 -249 69 -135 159 -310 200 -390 41 -80 132 -255 201 -390 69
-135 156 -304 193 -376 l67 -130 181 0 180 -1 44 96 c56 124 71 160 71 168 -1
3 3 9 8 12 5 3 35 65 68 136 32 72 63 133 69 137 6 4 7 8 3 8 -5 0 0 16 12 36
12 19 21 42 21 50 0 8 5 14 10 14 6 0 10 7 10 15 0 8 6 15 14 15 22 0 44 -26
51 -60 4 -16 11 -30 16 -30 5 0 9 -9 9 -19 0 -11 5 -23 10 -26 6 -3 10 -15 10
-26 0 -10 5 -19 10 -19 6 0 10 -4 10 -10 0 -5 11 -33 24 -62 13 -29 34 -75 46
-103 12 -27 35 -79 51 -114 16 -35 39 -87 51 -115 41 -95 47 -101 105 -101 28
0 54 3 57 5 2 3 -25 68 -60 145 -36 77 -75 160 -86 185 -11 25 -37 81 -58 125
-21 44 -49 105 -63 135 -13 30 -40 87 -58 125 -18 39 -32 72 -32 75 0 3 -16
37 -36 75 l-36 70 -213 0 c-118 0 -216 -3 -219 -8 -2 -4 -12 -3 -21 1 -9 5
-33 5 -52 2 -19 -3 -47 -3 -62 1 -16 4 -28 5 -28 1 0 -4 -95 -7 -211 -7 l-210
0 -14 25 c-8 14 -41 81 -74 150 -82 174 -135 288 -193 410 -81 170 -123 260
-164 348 l-39 83 -45 -5 c-25 -3 -56 -7 -70 -10 -23 -4 -44 -8 -140 -22 -19
-3 -46 -7 -60 -10 -14 -2 -41 -7 -60 -10 -19 -2 -57 -9 -85 -14 -27 -5 -70
-12 -95 -15 -25 -3 -52 -8 -60 -10 -8 -3 -33 -7 -55 -10 -86 -11 -105 -14
-122 -19 -10 -2 -38 -7 -63 -10 -25 -3 -54 -8 -65 -10 -11 -2 -42 -7 -70 -11
-27 -5 -52 -9 -55 -10 -3 -1 -30 -5 -60 -9 -30 -5 -62 -10 -71 -11 -44 -8
-117 -20 -174 -29 -22 -3 -49 -7 -60 -10 -20 -4 -82 -14 -140 -22 -16 -2 -41
-6 -55 -9 -14 -3 -43 -7 -65 -10 -22 -2 -51 -7 -65 -10 -27 -6 -49 -9 -120
-20 -25 -4 -54 -9 -65 -11 -11 -3 -40 -7 -64 -10 -24 -2 -46 -6 -50 -8 -3 -2
-31 -7 -61 -11 -30 -3 -72 -10 -93 -15 -35 -7 -55 -7 -125 5 -13 2 -70 26
-125 54 -56 27 -154 74 -217 104 -63 30 -178 85 -255 123 -77 37 -142 68 -145
68 -3 1 -50 23 -105 50 -55 27 -147 71 -205 98 -58 28 -157 75 -220 105 -63
31 -167 80 -230 110 -63 31 -164 79 -225 108 -60 29 -168 80 -240 115 -71 34
-147 70 -168 81 -51 26 -58 24 -92 -15z m6040 -1906 c3 -6 -1 -7 -9 -4 -18 7
-21 14 -7 14 6 0 13 -4 16 -10z"/>
<path d="M4866 7355 c-25 -7 -48 -10 -50 -8 -3 3 -22 -7 -43 -21 -20 -14 -42
-26 -48 -26 -38 -2 -140 -153 -150 -224 -3 -22 -7 -89 -8 -149 l-2 -107 50 -1
c57 -1 417 0 425 0 3 1 6 122 5 271 0 233 -2 270 -15 271 -66 6 -126 3 -164
-6z"/>
<path d="M5090 7088 l0 -273 240 -1 241 -1 -2 131 c-1 119 -4 138 -30 200 -54
132 -125 191 -244 201 -38 3 -100 8 -137 11 l-68 6 0 -274z"/>
<path d="M9202 6873 c-12 -13 -22 -29 -22 -34 0 -5 -3 -9 -7 -9 -20 0 -47 -98
-48 -171 l-2 -77 50 -4 c27 -1 52 -1 57 2 8 5 8 306 -1 314 -2 2 -14 -7 -27
-21z"/>
<path d="M9293 6736 c-2 -115 0 -155 10 -158 15 -6 96 -2 103 5 17 17 2 154
-23 216 -15 34 -64 91 -80 91 -5 0 -9 -69 -10 -154z"/>
<path d="M4570 6700 c-1 -19 -2 -126 -3 -237 l-2 -203 70 -1 c85 0 350 0 386
0 l25 1 -2 230 c0 127 -4 234 -8 238 -4 4 -111 7 -237 7 l-229 0 0 -35z"/>
<path d="M5087 6725 c-6 -18 0 -456 6 -462 5 -4 349 -7 464 -4 21 1 21 5 23
154 3 269 3 308 -5 315 -11 11 -484 8 -488 -3z"/>
<path d="M10836 6578 c-9 -12 -16 -28 -16 -35 0 -7 -4 -13 -8 -13 -4 0 -14
-15 -22 -32 -7 -18 -15 -35 -17 -39 -2 -3 14 -15 36 -27 41 -23 56 -27 47 -14
-9 15 21 97 35 97 8 0 14 -4 15 -10 0 -16 16 -79 21 -88 8 -14 31 20 37 53 6
38 -29 92 -75 116 -36 18 -35 18 -53 -8z"/>
<path d="M9137 6528 c-7 -4 -12 -32 -12 -65 0 -32 -4 -64 -8 -70 -5 -7 -4 -13
1 -13 5 0 8 -24 7 -54 -1 -30 1 -58 4 -63 3 -5 29 -8 57 -8 l51 0 -1 137 c-1
76 -3 138 -6 139 -30 4 -84 2 -93 -3z"/>
<path d="M9298 6525 c-7 -48 -2 -265 7 -268 5 -2 30 -3 55 -3 l45 1 5 134 c3
84 1 135 -5 137 -24 10 -105 9 -107 -1z"/>
<path d="M9320 6045 l0 -65 65 0 65 0 0 65 0 65 -65 0 -65 0 0 -65z"/>
<path d="M9610 6070 c0 -43 2 -45 63 -55 l37 -6 0 -374 0 -375 -25 -5 c-14 -3
-36 -7 -50 -10 -22 -5 -25 -10 -25 -50 l0 -45 165 0 165 0 0 45 c0 48 5 44
-77 61 l-23 4 0 425 0 425 -115 0 -115 0 0 -40z"/>
<path d="M10362 6068 c3 -43 3 -43 51 -52 l47 -8 0 -119 0 -119 -42 27 c-33
23 -55 28 -115 32 -95 4 -150 -16 -198 -71 -61 -72 -79 -134 -79 -279 -1 -125
-1 -127 34 -195 49 -96 95 -127 197 -133 87 -4 139 9 183 45 l30 26 0 -36 0
-36 110 0 110 0 0 44 c0 42 -2 45 -32 51 -75 15 -68 -31 -68 441 l0 424 -116
0 -115 0 3 -42z m17 -353 c16 -8 40 -28 55 -45 25 -31 26 -34 26 -180 l0 -149
-30 -34 c-39 -45 -79 -61 -135 -55 -58 7 -90 29 -116 80 -42 83 -34 257 17
336 36 56 123 78 183 47z"/>
<path d="M930 6011 c0 -43 -4 -40 78 -57 l22 -4 0 -345 0 -345 -22 -4 c-83
-17 -78 -13 -78 -61 l0 -45 173 0 c316 0 401 22 496 125 68 76 91 141 98 280
10 196 -24 312 -117 399 -93 87 -108 91 -397 94 l-253 3 0 -40z m500 -91 c53
-30 105 -95 122 -153 16 -54 16 -270 0 -324 -17 -58 -69 -123 -122 -153 -39
-21 -60 -25 -157 -28 l-113 -4 0 347 0 347 113 -4 c97 -3 118 -7 157 -28z"/>
<path d="M7630 6011 c0 -43 -4 -40 78 -57 l22 -4 0 -345 0 -345 -22 -4 c-83
-17 -78 -13 -78 -62 l0 -46 258 5 c143 3 273 10 292 16 63 19 128 67 152 113
32 61 32 185 0 245 -21 41 -68 83 -106 97 -17 6 -15 10 17 32 57 38 80 92 75
179 -4 91 -32 138 -109 180 l-54 30 -262 3 -263 3 0 -40z m487 -80 c49 -23 73
-62 73 -120 0 -54 -17 -87 -58 -113 -28 -17 -55 -22 -153 -26 l-119 -5 0 142
0 141 108 0 c83 0 116 -5 149 -19z m40 -381 c45 -27 63 -60 69 -122 7 -71 -16
-115 -76 -145 -39 -20 -60 -23 -167 -23 l-123 0 0 155 0 155 133 0 c113 0 137
-3 164 -20z"/>
<path d="M4430 5900 l0 -80 -55 0 -55 0 0 -50 0 -50 55 0 55 0 0 -225 c0 -244
4 -269 55 -315 24 -23 34 -25 120 -25 52 0 98 5 103 10 5 6 5 27 0 51 l-9 41
-48 -5 c-40 -3 -52 -1 -70 17 -20 20 -21 30 -21 236 l0 215 60 0 60 0 0 50 0
50 -60 0 -60 0 0 80 0 80 -65 0 -65 0 0 -80z"/>
<path d="M1972 5804 c-61 -30 -96 -68 -131 -144 -23 -49 -26 -67 -26 -170 0
-103 3 -121 26 -170 35 -76 70 -114 131 -144 44 -22 66 -26 138 -26 138 0 211
46 269 170 23 49 26 67 26 170 0 103 -3 121 -26 170 -35 76 -70 114 -131 144
-44 22 -66 26 -138 26 -72 0 -94 -4 -138 -26z m226 -101 c15 -11 38 -42 52
-69 22 -42 25 -62 25 -144 0 -82 -3 -102 -25 -144 -36 -70 -68 -91 -140 -91
-44 0 -66 5 -87 21 -118 88 -104 384 20 440 42 19 121 12 155 -13z"/>
<path d="M3550 5785 c0 -29 4 -45 13 -45 6 0 29 -5 50 -11 l37 -10 0 -225 c0
-171 -3 -226 -12 -229 -7 -2 -30 -6 -50 -10 -37 -6 -38 -7 -38 -50 l0 -45 165
0 165 0 0 44 c0 42 -2 45 -32 51 -74 15 -68 -3 -68 200 0 183 0 183 26 215 15
17 39 37 55 45 36 19 112 19 148 1 48 -25 55 -55 59 -258 l4 -187 -29 -6 c-15
-4 -38 -8 -50 -11 -20 -4 -23 -11 -23 -49 l0 -45 165 0 165 0 0 45 c0 43 -1
44 -37 50 -21 4 -43 8 -49 10 -8 3 -13 66 -16 207 -3 189 -5 206 -27 251 -36
74 -84 101 -186 105 -88 4 -138 -12 -179 -57 -28 -30 -36 -26 -36 19 l0 40
-110 0 -110 0 0 -45z"/>
<path d="M4952 5804 c-61 -30 -96 -68 -131 -144 -23 -49 -26 -67 -26 -170 0
-103 3 -121 26 -170 35 -76 70 -114 131 -144 44 -22 66 -26 138 -26 138 0 211
46 269 170 23 49 26 67 26 170 0 103 -3 121 -26 170 -35 76 -70 114 -131 144
-44 22 -66 26 -138 26 -72 0 -94 -4 -138 -26z m226 -101 c15 -11 38 -42 52
-69 22 -42 25 -62 25 -144 0 -82 -3 -102 -25 -144 -36 -70 -68 -91 -140 -91
-44 0 -66 5 -87 21 -118 88 -104 384 20 440 42 19 121 12 155 -13z"/>
<path d="M10943 5809 c-53 -26 -119 -97 -145 -157 -29 -65 -36 -209 -14 -284
22 -77 72 -147 130 -182 43 -27 59 -31 146 -34 109 -5 173 10 224 52 28 22 29
25 17 54 -22 53 -33 55 -92 25 -72 -38 -177 -40 -226 -5 -34 24 -67 86 -77
145 l-7 37 216 0 215 0 0 83 c-1 133 -44 217 -133 262 -68 34 -190 36 -254 4z
m181 -94 c38 -18 76 -80 76 -124 l0 -31 -146 0 -146 0 6 31 c21 108 121 166
210 124z"/>
<path d="M11800 5821 c-39 -8 -95 -35 -105 -51 -12 -20 -25 -10 -25 20 l0 30
-110 0 -110 0 0 -40 c0 -37 2 -39 38 -45 20 -4 43 -8 50 -10 9 -3 12 -59 12
-234 l0 -231 -27 -5 c-16 -4 -38 -8 -50 -11 -20 -4 -23 -11 -23 -49 l0 -45
165 0 165 0 0 45 c0 38 -3 45 -22 49 -13 3 -35 7 -50 11 l-28 5 0 191 0 191
34 34 c32 32 38 34 99 34 l64 0 7 46 c3 26 6 53 6 60 0 15 -31 17 -90 5z"/>
<path d="M12094 5806 c-74 -34 -107 -82 -112 -160 -3 -51 0 -66 20 -96 29 -42
106 -83 203 -106 127 -31 163 -60 153 -124 -8 -57 -131 -90 -211 -57 -31 13
-39 23 -49 61 l-12 46 -48 0 -49 0 3 -82 3 -83 50 -24 c42 -21 69 -26 161 -29
98 -4 117 -1 162 18 56 24 108 75 118 116 4 14 4 50 2 80 -8 91 -62 131 -237
178 -101 27 -141 54 -141 93 0 82 109 120 206 72 36 -17 43 -26 49 -60 l7 -39
49 0 49 0 0 74 c0 69 -2 76 -26 95 -41 32 -119 51 -213 51 -69 0 -96 -5 -137
-24z"/>
<path d="M2452 5778 c3 -38 6 -43 30 -46 24 -3 30 -10 44 -60 9 -31 47 -160
84 -287 l67 -230 54 0 53 0 67 215 c37 118 70 229 74 245 6 27 8 23 29 -45 12
-41 47 -153 77 -247 l54 -173 52 0 52 0 22 73 c12 39 50 169 84 287 61 211 63
215 91 220 26 5 29 10 32 48 l3 42 -136 0 -136 0 3 -42 c3 -41 5 -43 38 -48
41 -6 43 14 -14 -218 -35 -141 -44 -167 -49 -140 -3 19 -35 127 -72 241 l-67
208 -55 -3 -56 -3 -54 -170 c-29 -93 -62 -201 -72 -240 -11 -38 -20 -59 -21
-45 0 14 -20 100 -44 192 -24 92 -41 169 -38 172 3 3 18 6 34 6 27 0 28 2 28
45 l0 45 -131 0 -130 0 3 -42z"/>
<path d="M5472 5778 c3 -38 6 -43 30 -46 24 -3 30 -10 44 -60 9 -31 47 -160
84 -287 l67 -230 54 0 53 0 67 215 c37 118 70 229 74 245 6 27 8 23 29 -45 12
-41 47 -153 77 -247 l54 -173 52 0 52 0 22 73 c12 39 50 169 84 287 61 211 63
215 91 220 26 5 29 10 32 48 l3 42 -136 0 -136 0 3 -42 c3 -41 5 -43 38 -48
41 -6 43 14 -14 -218 -35 -141 -44 -167 -49 -140 -3 19 -35 127 -72 241 l-67
208 -55 -3 -56 -3 -54 -170 c-29 -93 -62 -201 -72 -240 -11 -38 -20 -59 -21
-45 0 14 -20 100 -44 192 -24 92 -41 169 -38 172 3 3 18 6 34 6 27 0 28 2 28
45 l0 45 -131 0 -130 0 3 -42z"/>
<path d="M6500 5775 c0 -29 4 -45 13 -45 6 0 29 -5 50 -11 l37 -10 0 -225 c0
-171 -3 -226 -12 -229 -7 -2 -30 -6 -50 -10 -37 -6 -38 -7 -38 -50 l0 -45 165
0 165 0 0 44 c0 42 -2 45 -32 51 -74 15 -68 -3 -68 200 0 183 0 183 26 215 15
17 39 37 55 45 36 19 112 19 148 1 48 -25 55 -55 59 -258 l4 -187 -29 -6 c-15
-4 -38 -8 -50 -11 -20 -4 -23 -11 -23 -49 l0 -45 165 0 165 0 0 45 c0 43 -1
44 -37 50 -21 4 -43 8 -49 10 -8 3 -13 66 -16 207 -3 189 -5 206 -27 251 -36
74 -84 101 -186 105 -88 4 -138 -12 -179 -57 -28 -30 -36 -26 -36 19 l0 40
-110 0 -110 0 0 -45z"/>
<path d="M8430 5776 c0 -43 1 -44 39 -50 l39 -6 4 -202 c3 -167 7 -210 21
-243 39 -87 101 -125 207 -125 79 0 123 15 159 54 28 29 41 21 41 -26 l0 -28
95 0 95 0 0 45 c0 42 -2 45 -32 53 l-33 8 -3 282 -2 282 -110 0 -110 0 0 -44
0 -44 45 -6 45 -7 0 -189 c0 -186 0 -189 -25 -218 -47 -56 -137 -79 -200 -50
-55 25 -60 51 -63 316 l-3 242 -105 0 -104 0 0 -44z"/>
<path d="M9220 5776 l0 -43 50 -7 50 -7 0 -229 0 -230 -25 -5 c-14 -3 -36 -7
-50 -10 -22 -5 -25 -10 -25 -50 l0 -45 165 0 165 0 0 45 c0 48 5 44 -77 61
l-23 4 0 280 0 280 -115 0 -115 0 0 -44z"/>
<path d="M4290 4945 c0 -21 5 -25 30 -25 25 0 30 4 30 25 0 21 -5 25 -30 25
-25 0 -30 -4 -30 -25z"/>
<path d="M5970 4950 c-11 -11 -20 -33 -20 -50 0 -23 -4 -30 -20 -30 -13 0 -20
-7 -20 -20 0 -13 7 -20 20 -20 18 0 20 -7 20 -86 0 -77 -2 -86 -20 -91 -11 -3
-20 -12 -20 -19 0 -11 16 -14 65 -14 50 0 65 3 65 14 0 8 -9 18 -20 21 -18 6
-20 15 -20 91 0 83 0 84 25 84 18 0 25 5 25 20 0 15 -7 20 -25 20 -15 0 -25 6
-25 14 0 29 13 46 35 46 19 0 35 16 35 36 0 2 -18 4 -40 4 -27 0 -47 -7 -60
-20z"/>
<path d="M7460 4956 c0 -8 9 -18 20 -21 19 -6 20 -15 20 -140 0 -125 -1 -134
-20 -140 -11 -3 -20 -13 -20 -21 0 -11 15 -14 65 -14 49 0 65 3 65 14 0 7 -9
16 -20 19 -18 5 -20 14 -20 81 0 80 10 96 59 96 29 0 41 -30 41 -105 0 -58 -3
-68 -20 -72 -11 -3 -20 -12 -20 -19 0 -11 16 -14 65 -14 50 0 65 3 65 14 0 8
-9 18 -20 21 -18 6 -20 15 -20 89 0 73 -3 85 -23 104 -25 24 -75 29 -108 12
-18 -10 -19 -7 -19 50 l0 60 -45 0 c-32 0 -45 -4 -45 -14z"/>
<path d="M7790 4945 c0 -21 5 -25 30 -25 25 0 30 4 30 25 0 21 -5 25 -30 25
-25 0 -30 -4 -30 -25z"/>
<path d="M9420 4945 c0 -21 5 -25 30 -25 25 0 30 4 30 25 0 21 -5 25 -30 25
-25 0 -30 -4 -30 -25z"/>
<path d="M3450 4936 c0 -8 9 -18 20 -21 19 -6 20 -15 20 -130 0 -115 -1 -124
-20 -130 -11 -3 -20 -13 -20 -21 0 -11 20 -14 98 -14 113 0 154 17 178 75 18
44 18 136 0 180 -24 58 -65 75 -178 75 -78 0 -98 -3 -98 -14z m197 -41 c50
-35 55 -164 8 -211 -18 -18 -35 -24 -70 -24 l-45 0 0 125 0 125 43 0 c23 0 52
-7 64 -15z"/>
<path d="M5242 4930 c-40 -24 -72 -89 -72 -145 0 -56 32 -121 72 -145 42 -25
119 -27 159 -3 24 14 29 24 29 55 0 31 -4 38 -20 38 -15 0 -20 -7 -20 -25 0
-47 -80 -62 -125 -22 -52 44 -52 160 0 205 45 39 125 24 125 -23 0 -18 5 -25
20 -25 17 0 20 7 20 39 0 34 -4 41 -34 55 -47 22 -114 20 -154 -4z"/>
<path d="M8463 4931 c-39 -24 -52 -71 -29 -106 18 -27 54 -48 101 -59 68 -16
94 -56 59 -90 -18 -18 -76 -21 -105 -6 -11 6 -19 21 -19 35 0 20 -5 25 -25 25
-22 0 -25 -4 -25 -35 0 -29 6 -39 33 -55 59 -36 183 -20 201 25 24 63 -9 112
-95 140 -67 22 -79 31 -79 61 0 28 26 44 72 44 38 0 58 -15 58 -42 0 -13 8
-18 25 -18 21 0 25 5 25 30 0 63 -125 95 -197 51z"/>
<path d="M6120 4900 c0 -23 -4 -30 -20 -30 -13 0 -20 -7 -20 -20 0 -13 7 -20
20 -20 19 0 20 -7 20 -89 0 -105 10 -121 71 -121 33 0 40 3 37 17 -2 9 -14 20
-28 23 -24 6 -25 10 -28 88 -3 82 -3 82 23 82 18 0 25 5 25 20 0 15 -7 20 -25
20 -21 0 -25 5 -25 30 0 25 -4 30 -25 30 -21 0 -25 -5 -25 -30z"/>
<path d="M3824 4852 c-33 -26 -44 -55 -44 -115 0 -47 4 -60 29 -86 24 -26 37
-31 75 -31 43 0 96 16 96 29 -1 22 -19 32 -38 22 -35 -19 -79 -13 -96 11 -30
42 -22 48 65 48 l82 0 -6 47 c-7 62 -40 93 -100 93 -25 0 -51 -8 -63 -18z
m103 -52 c12 -25 12 -25 -38 -28 -28 -2 -54 -1 -56 2 -3 3 2 17 11 31 22 34
65 31 83 -5z"/>
<path d="M4045 4845 c-47 -46 -27 -87 55 -114 46 -15 55 -22 55 -42 0 -21 -5
-24 -38 -27 -32 -3 -39 0 -44 17 -3 13 -14 21 -28 21 -19 0 -21 -4 -17 -27 6
-40 29 -53 89 -53 44 0 59 5 78 25 47 46 23 95 -60 118 -42 12 -50 18 -50 38
0 20 6 25 32 27 24 2 34 -2 43 -17 6 -12 20 -21 30 -21 32 0 27 53 -5 68 -46
21 -113 15 -140 -13z"/>
<path d="M4260 4855 c0 -9 7 -18 15 -21 12 -5 15 -25 15 -90 0 -66 -3 -86 -15
-90 -8 -4 -15 -12 -15 -20 0 -10 15 -14 60 -14 45 0 60 4 60 14 0 8 -7 16 -15
20 -12 4 -15 26 -15 111 l0 105 -45 0 c-34 0 -45 -4 -45 -15z"/>
<path d="M4440 4845 c-20 -21 -25 -39 -28 -94 -4 -62 -2 -70 24 -100 26 -31
31 -33 81 -29 57 5 68 -6 36 -37 -13 -13 -27 -16 -60 -11 -34 4 -45 2 -50 -10
-9 -23 15 -34 72 -34 92 1 105 26 105 204 l0 136 -25 0 c-14 0 -25 -5 -25 -12
0 -9 -3 -9 -12 0 -7 7 -31 12 -53 12 -32 0 -47 -6 -65 -25z m114 -31 c11 -10
16 -34 16 -69 0 -60 -16 -85 -55 -85 -37 0 -59 40 -53 95 3 25 11 52 18 60 16
20 54 19 74 -1z"/>
<path d="M4660 4850 c0 -13 7 -20 20 -20 18 0 20 -7 20 -84 0 -76 -2 -85 -20
-91 -11 -3 -20 -13 -20 -21 0 -11 15 -14 65 -14 49 0 65 3 65 14 0 7 -9 16
-20 19 -18 5 -20 14 -20 81 0 80 10 96 59 96 29 0 41 -30 41 -105 0 -58 -3
-68 -20 -72 -11 -3 -20 -12 -20 -19 0 -11 16 -14 65 -14 50 0 65 3 65 14 0 8
-9 18 -20 21 -18 6 -20 15 -20 84 0 64 -4 83 -21 105 -22 28 -73 36 -109 16
-13 -7 -21 -7 -25 0 -3 5 -24 10 -46 10 -32 0 -39 -3 -39 -20z"/>
<path d="M5480 4855 c0 -8 7 -15 15 -15 12 0 15 -17 15 -89 0 -70 -3 -90 -15
-95 -8 -3 -15 -12 -15 -21 0 -12 13 -15 60 -15 45 0 60 4 60 14 0 8 -7 16 -15
20 -12 4 -15 23 -15 85 0 83 5 91 51 91 12 0 19 7 19 20 0 15 -7 20 -28 20
-15 0 -33 -5 -40 -12 -9 -9 -12 -9 -12 0 0 7 -16 12 -40 12 -29 0 -40 -4 -40
-15z"/>
<path d="M5703 4858 c-29 -14 -33 -68 -5 -68 9 0 23 9 30 20 23 37 92 21 92
-22 0 -14 -8 -18 -34 -18 -75 0 -116 -30 -116 -84 0 -54 75 -86 131 -56 13 7
19 7 19 0 0 -5 16 -10 35 -10 34 0 49 20 25 35 -5 3 -10 44 -10 90 0 78 -2 85
-26 104 -30 23 -102 28 -141 9z m117 -145 c0 -27 -31 -53 -62 -53 -39 0 -49
27 -19 52 30 23 81 24 81 1z"/>
<path d="M6240 4850 c0 -11 7 -20 15 -20 12 0 15 -16 15 -85 0 -67 -3 -87 -15
-91 -8 -4 -15 -12 -15 -20 0 -10 15 -14 60 -14 45 0 60 4 60 14 0 8 -7 16 -15
20 -11 4 -15 23 -15 79 0 78 9 97 47 97 31 0 43 -28 43 -105 0 -58 -3 -68 -20
-72 -11 -3 -20 -12 -20 -19 0 -11 16 -14 65 -14 50 0 65 3 65 14 0 8 -9 18
-20 21 -17 5 -20 15 -20 63 0 72 17 106 53 110 34 4 47 -25 47 -108 0 -50 -3
-60 -20 -65 -11 -3 -20 -13 -20 -21 0 -11 15 -14 65 -14 49 0 65 3 65 14 0 7
-9 16 -19 19 -16 4 -19 16 -22 90 -3 66 -8 90 -23 106 -22 25 -82 28 -111 7
-17 -12 -22 -12 -39 0 -24 16 -79 18 -107 4 -13 -7 -19 -7 -19 0 0 5 -18 10
-40 10 -33 0 -40 -3 -40 -20z"/>
<path d="M6723 4858 c-29 -14 -33 -68 -5 -68 9 0 23 9 30 20 23 37 92 21 92
-22 0 -14 -8 -18 -34 -18 -75 0 -116 -30 -116 -84 0 -54 75 -86 131 -56 13 7
19 7 19 0 0 -5 16 -10 35 -10 34 0 49 20 25 35 -5 3 -10 44 -10 90 0 78 -2 85
-26 104 -30 23 -102 28 -141 9z m117 -145 c0 -27 -31 -53 -62 -53 -39 0 -49
27 -19 52 30 23 81 24 81 1z"/>
<path d="M6930 4850 c0 -13 7 -20 20 -20 18 0 20 -7 20 -84 0 -76 -2 -85 -20
-91 -11 -3 -20 -13 -20 -21 0 -11 15 -14 65 -14 49 0 65 3 65 14 0 7 -9 16
-20 19 -18 5 -20 14 -20 81 0 80 10 96 59 96 29 0 41 -30 41 -105 0 -58 -3
-68 -20 -72 -11 -3 -20 -12 -20 -19 0 -11 16 -14 65 -14 50 0 65 3 65 14 0 8
-9 18 -20 21 -18 6 -20 15 -20 84 0 64 -4 83 -21 105 -22 28 -73 36 -109 16
-13 -7 -21 -7 -25 0 -3 5 -24 10 -46 10 -32 0 -39 -3 -39 -20z"/>
<path d="M7255 4845 c-47 -46 -27 -87 55 -114 46 -15 55 -22 55 -42 0 -21 -5
-24 -38 -27 -32 -3 -39 0 -44 17 -3 13 -14 21 -28 21 -19 0 -21 -4 -17 -27 6
-40 29 -53 89 -53 44 0 59 5 78 25 47 46 23 95 -60 118 -42 12 -50 18 -50 38
0 20 6 25 32 27 24 2 34 -2 43 -17 6 -12 20 -21 30 -21 32 0 27 53 -5 68 -46
21 -113 15 -140 -13z"/>
<path d="M7760 4855 c0 -9 7 -18 15 -21 12 -5 15 -25 15 -90 0 -66 -3 -86 -15
-90 -8 -4 -15 -12 -15 -20 0 -10 15 -14 60 -14 45 0 60 4 60 14 0 8 -7 16 -15
20 -12 4 -15 26 -15 111 l0 105 -45 0 c-34 0 -45 -4 -45 -15z"/>
<path d="M7900 4849 c0 -12 7 -19 20 -19 19 0 20 -7 20 -129 0 -121 -1 -130
-20 -136 -11 -3 -20 -13 -20 -21 0 -11 15 -14 65 -14 50 0 65 3 65 14 0 8 -9
18 -20 21 -14 4 -20 15 -20 34 0 27 1 28 53 23 50 -4 55 -2 81 29 26 30 28 38
24 102 -3 60 -7 72 -30 92 -24 21 -37 23 -123 23 -87 0 -95 -1 -95 -19z m166
-27 c35 -23 45 -102 18 -140 -17 -24 -62 -30 -82 -10 -7 7 -12 39 -12 73 0 34
5 66 12 73 13 13 47 16 64 4z"/>
<path d="M8734 4852 c-33 -26 -44 -55 -44 -115 0 -47 4 -60 29 -86 24 -26 37
-31 75 -31 43 0 96 16 96 29 -1 22 -19 32 -38 22 -35 -19 -79 -13 -96 11 -30
42 -22 48 65 48 l82 0 -6 47 c-7 62 -40 93 -100 93 -25 0 -51 -8 -63 -18z
m103 -52 c12 -25 12 -25 -38 -28 -28 -2 -54 -1 -56 2 -3 3 2 17 11 31 22 34
65 31 83 -5z"/>
<path d="M8940 4855 c0 -8 7 -15 15 -15 12 0 15 -17 15 -89 0 -70 -3 -90 -15
-95 -8 -3 -15 -12 -15 -21 0 -12 13 -15 60 -15 45 0 60 4 60 14 0 8 -7 16 -15
20 -12 4 -15 23 -15 85 0 83 5 91 51 91 12 0 19 7 19 20 0 15 -7 20 -28 20
-15 0 -33 -5 -40 -12 -9 -9 -12 -9 -12 0 0 7 -16 12 -40 12 -29 0 -40 -4 -40
-15z"/>
<path d="M9110 4856 c0 -8 6 -16 14 -19 7 -3 31 -53 52 -111 36 -98 41 -106
63 -104 21 3 29 17 61 101 20 53 41 102 48 109 26 26 13 38 -38 38 -50 0 -64
-12 -39 -37 8 -8 6 -26 -7 -67 -10 -31 -21 -56 -25 -56 -4 0 -16 27 -28 61
-17 51 -18 61 -6 66 8 3 15 11 15 19 0 10 -15 14 -55 14 -40 0 -55 -4 -55 -14z"/>
<path d="M9390 4855 c0 -9 7 -18 15 -21 12 -5 15 -25 15 -90 0 -66 -3 -86 -15
-90 -8 -4 -15 -12 -15 -20 0 -10 15 -14 60 -14 45 0 60 4 60 14 0 8 -7 16 -15
20 -12 4 -15 26 -15 111 l0 105 -45 0 c-34 0 -45 -4 -45 -15z"/>
<path d="M9569 4841 c-26 -27 -29 -36 -29 -96 0 -60 3 -69 29 -96 23 -23 38
-29 71 -29 58 0 109 31 110 68 0 19 -38 14 -60 -8 -27 -27 -65 -26 -84 2 -21
29 -20 97 0 126 21 31 75 27 89 -5 10 -25 55 -33 55 -10 -1 54 -33 77 -106 77
-37 0 -51 -6 -75 -29z"/>
<path d="M9834 4852 c-33 -26 -44 -55 -44 -115 0 -47 4 -60 29 -86 24 -26 37
-31 75 -31 43 0 96 16 96 29 -1 22 -19 32 -38 22 -35 -19 -79 -13 -96 11 -30
42 -22 48 65 48 l82 0 -6 47 c-7 62 -40 93 -100 93 -25 0 -51 -8 -63 -18z
m103 -52 c12 -25 12 -25 -38 -28 -28 -2 -54 -1 -56 2 -3 3 2 17 11 31 22 34
65 31 83 -5z"/>
<path d="M10055 4845 c-47 -46 -27 -87 55 -114 46 -15 55 -22 55 -42 0 -21 -5
-24 -38 -27 -32 -3 -39 0 -44 17 -3 13 -14 21 -28 21 -19 0 -21 -4 -17 -27 6
-40 29 -53 89 -53 44 0 59 5 78 25 47 46 23 95 -60 118 -42 12 -50 18 -50 38
0 20 6 25 32 27 24 2 34 -2 43 -17 6 -12 20 -21 30 -21 32 0 27 53 -5 68 -46
21 -113 15 -140 -13z"/>
<path d="M4970 4645 c0 -20 5 -25 25 -25 20 0 25 5 25 25 0 20 -5 25 -25 25
-20 0 -25 -5 -25 -25z"/>
<path d="M8200 4645 c0 -20 5 -25 25 -25 20 0 25 5 25 25 0 20 -5 25 -25 25
-20 0 -25 -5 -25 -25z"/>
</g>
</svg>
